<svg width="351" height="62" viewBox="0 0 351 62" fill="none" xmlns="http://www.w3.org/2000/svg">
<g filter="url(#filter0_d_55_2)">
<line x1="38" y1="0.5" x2="4" y2="0.5" stroke="black"/>
<line x1="4.80469" y1="33" x2="4.80469" stroke="black"/>
</g>
<path d="M35.6094 43H29.5547V19.4844H21.8008V14.4453H43.3633V19.4844H35.6094V43ZM56.0781 14.4453C58.6693 14.4453 60.8047 14.7578 62.4844 15.3828C64.1771 16.0078 65.4336 16.9518 66.2539 18.2148C67.0742 19.4779 67.4844 21.0729 67.4844 23C67.4844 24.3021 67.237 25.4414 66.7422 26.418C66.2474 27.3945 65.5964 28.2214 64.7891 28.8984C63.9818 29.5755 63.1094 30.1289 62.1719 30.5586L70.5703 43H63.8516L57.0352 32.043H53.8125V43H47.7578V14.4453H56.0781ZM55.6484 19.4062H53.8125V27.1211H55.7656C57.7708 27.1211 59.2031 26.7891 60.0625 26.125C60.9349 25.4479 61.3711 24.4583 61.3711 23.1562C61.3711 21.8021 60.9023 20.8385 59.9648 20.2656C59.0404 19.6927 57.6016 19.4062 55.6484 19.4062ZM91.6445 43L89.5742 36.2031H79.1641L77.0938 43H70.5703L80.6484 14.3281H88.0508L98.168 43H91.6445ZM88.1289 31.125L86.0586 24.4844C85.9284 24.0417 85.7526 23.4753 85.5312 22.7852C85.3229 22.082 85.1081 21.3724 84.8867 20.6562C84.6784 19.9271 84.5091 19.2956 84.3789 18.7617C84.2487 19.2956 84.0664 19.9596 83.832 20.7539C83.6107 21.5352 83.3958 22.2773 83.1875 22.9805C82.9792 23.6836 82.8294 24.1849 82.7383 24.4844L80.6875 31.125H88.1289ZM124.184 14.4453L114.477 43H107.875L98.1875 14.4453H104.301L109.672 31.4375C109.763 31.724 109.913 32.2643 110.121 33.0586C110.329 33.8398 110.538 34.6732 110.746 35.5586C110.967 36.431 111.117 37.1536 111.195 37.7266C111.273 37.1536 111.41 36.431 111.605 35.5586C111.814 34.6862 112.016 33.8594 112.211 33.0781C112.419 32.2839 112.569 31.737 112.66 31.4375L118.07 14.4453H124.184ZM144.242 43H127.797V14.4453H144.242V19.4062H133.852V25.6758H143.52V30.6367H133.852V38H144.242V43ZM150.219 43V14.4453H156.273V38H167.855V43H150.219ZM198.754 28.6836C198.754 30.8841 198.48 32.8893 197.934 34.6992C197.387 36.4961 196.553 38.0456 195.434 39.3477C194.327 40.6497 192.921 41.6523 191.215 42.3555C189.509 43.0456 187.491 43.3906 185.16 43.3906C182.829 43.3906 180.811 43.0456 179.105 42.3555C177.4 41.6523 175.987 40.6497 174.867 39.3477C173.76 38.0456 172.934 36.4896 172.387 34.6797C171.84 32.8698 171.566 30.8581 171.566 28.6445C171.566 25.6888 172.048 23.1172 173.012 20.9297C173.988 18.7292 175.486 17.0234 177.504 15.8125C179.522 14.6016 182.087 13.9961 185.199 13.9961C188.298 13.9961 190.844 14.6016 192.836 15.8125C194.841 17.0234 196.326 18.7292 197.289 20.9297C198.266 23.1302 198.754 25.7148 198.754 28.6836ZM177.914 28.6836C177.914 30.6758 178.161 32.3945 178.656 33.8398C179.164 35.2721 179.952 36.3789 181.02 37.1602C182.087 37.9284 183.467 38.3125 185.16 38.3125C186.879 38.3125 188.272 37.9284 189.34 37.1602C190.408 36.3789 191.182 35.2721 191.664 33.8398C192.159 32.3945 192.406 30.6758 192.406 28.6836C192.406 25.6888 191.846 23.332 190.727 21.6133C189.607 19.8945 187.764 19.0352 185.199 19.0352C183.493 19.0352 182.1 19.4258 181.02 20.207C179.952 20.9753 179.164 22.082 178.656 23.5273C178.161 24.9596 177.914 26.6784 177.914 28.6836ZM215.512 26.9648H226.84V41.7695C225.342 42.2643 223.786 42.6615 222.172 42.9609C220.557 43.2474 218.728 43.3906 216.684 43.3906C213.845 43.3906 211.436 42.8307 209.457 41.7109C207.478 40.5911 205.974 38.9375 204.945 36.75C203.917 34.5625 203.402 31.8737 203.402 28.6836C203.402 25.6888 203.975 23.0977 205.121 20.9102C206.28 18.7227 207.966 17.0299 210.18 15.832C212.406 14.6341 215.121 14.0352 218.324 14.0352C219.835 14.0352 221.326 14.1979 222.797 14.5234C224.268 14.849 225.603 15.2721 226.801 15.793L224.789 20.6367C223.917 20.194 222.921 19.8229 221.801 19.5234C220.681 19.224 219.509 19.0742 218.285 19.0742C216.527 19.0742 214.997 19.4779 213.695 20.2852C212.406 21.0924 211.404 22.2253 210.688 23.6836C209.984 25.1289 209.633 26.8346 209.633 28.8008C209.633 30.6628 209.887 32.3164 210.395 33.7617C210.902 35.194 211.703 36.3203 212.797 37.1406C213.891 37.9479 215.316 38.3516 217.074 38.3516C217.934 38.3516 218.656 38.3125 219.242 38.2344C219.841 38.1432 220.401 38.0521 220.922 37.9609V32.0039H215.512V26.9648ZM244.496 26.9648H255.824V41.7695C254.327 42.2643 252.771 42.6615 251.156 42.9609C249.542 43.2474 247.712 43.3906 245.668 43.3906C242.829 43.3906 240.421 42.8307 238.441 41.7109C236.462 40.5911 234.958 38.9375 233.93 36.75C232.901 34.5625 232.387 31.8737 232.387 28.6836C232.387 25.6888 232.96 23.0977 234.105 20.9102C235.264 18.7227 236.951 17.0299 239.164 15.832C241.391 14.6341 244.105 14.0352 247.309 14.0352C248.819 14.0352 250.31 14.1979 251.781 14.5234C253.253 14.849 254.587 15.2721 255.785 15.793L253.773 20.6367C252.901 20.194 251.905 19.8229 250.785 19.5234C249.665 19.224 248.493 19.0742 247.27 19.0742C245.512 19.0742 243.982 19.4779 242.68 20.2852C241.391 21.0924 240.388 22.2253 239.672 23.6836C238.969 25.1289 238.617 26.8346 238.617 28.8008C238.617 30.6628 238.871 32.3164 239.379 33.7617C239.887 35.194 240.688 36.3203 241.781 37.1406C242.875 37.9479 244.301 38.3516 246.059 38.3516C246.918 38.3516 247.641 38.3125 248.227 38.2344C248.826 38.1432 249.385 38.0521 249.906 37.9609V32.0039H244.496V26.9648ZM279.086 43H262.641V14.4453H279.086V19.4062H268.695V25.6758H278.363V30.6367H268.695V38H279.086V43ZM293.383 14.4453C295.974 14.4453 298.109 14.7578 299.789 15.3828C301.482 16.0078 302.738 16.9518 303.559 18.2148C304.379 19.4779 304.789 21.0729 304.789 23C304.789 24.3021 304.542 25.4414 304.047 26.418C303.552 27.3945 302.901 28.2214 302.094 28.8984C301.286 29.5755 300.414 30.1289 299.477 30.5586L307.875 43H301.156L294.34 32.043H291.117V43H285.062V14.4453H293.383ZM292.953 19.4062H291.117V27.1211H293.07C295.076 27.1211 296.508 26.7891 297.367 26.125C298.24 25.4479 298.676 24.4583 298.676 23.1562C298.676 21.8021 298.207 20.8385 297.27 20.2656C296.345 19.6927 294.906 19.4062 292.953 19.4062ZM328.324 35.0703C328.324 36.763 327.914 38.2344 327.094 39.4844C326.273 40.7344 325.076 41.6979 323.5 42.375C321.938 43.0521 320.036 43.3906 317.797 43.3906C316.807 43.3906 315.837 43.3255 314.887 43.1953C313.949 43.0651 313.044 42.8763 312.172 42.6289C311.312 42.3685 310.492 42.0495 309.711 41.6719V36.0469C311.065 36.6458 312.471 37.1862 313.93 37.668C315.388 38.1497 316.833 38.3906 318.266 38.3906C319.255 38.3906 320.049 38.2604 320.648 38C321.26 37.7396 321.703 37.3815 321.977 36.9258C322.25 36.4701 322.387 35.9492 322.387 35.3633C322.387 34.6471 322.146 34.0352 321.664 33.5273C321.182 33.0195 320.518 32.5443 319.672 32.1016C318.839 31.6589 317.895 31.1836 316.84 30.6758C316.176 30.3633 315.453 29.9857 314.672 29.543C313.891 29.0872 313.148 28.5339 312.445 27.8828C311.742 27.2318 311.163 26.444 310.707 25.5195C310.264 24.582 310.043 23.4622 310.043 22.1602C310.043 20.4544 310.434 18.9961 311.215 17.7852C311.996 16.5742 313.109 15.6497 314.555 15.0117C316.013 14.3607 317.732 14.0352 319.711 14.0352C321.195 14.0352 322.608 14.2109 323.949 14.5625C325.303 14.901 326.716 15.3958 328.188 16.0469L326.234 20.7539C324.919 20.2201 323.741 19.8099 322.699 19.5234C321.658 19.224 320.596 19.0742 319.516 19.0742C318.76 19.0742 318.116 19.1979 317.582 19.4453C317.048 19.6797 316.645 20.0182 316.371 20.4609C316.098 20.8906 315.961 21.3919 315.961 21.9648C315.961 22.6419 316.156 23.2148 316.547 23.6836C316.951 24.1393 317.549 24.582 318.344 25.0117C319.151 25.4414 320.154 25.9427 321.352 26.5156C322.81 27.2057 324.053 27.9284 325.082 28.6836C326.124 29.4258 326.924 30.3047 327.484 31.3203C328.044 32.3229 328.324 33.5729 328.324 35.0703Z" fill="white"/>
<g opacity="0.98" filter="url(#filter1_d_55_2)">
<line x1="313.001" y1="53.5" x2="347" y2="53.5" stroke="black"/>
<line x1="346.194" y1="21" x2="346.194" y2="54" stroke="black"/>
</g>
<defs>
<filter id="filter0_d_55_2" x="0" y="0" width="42" height="41" filterUnits="userSpaceOnUse" color-interpolation-filters="sRGB">
<feFlood flood-opacity="0" result="BackgroundImageFix"/>
<feColorMatrix in="SourceAlpha" type="matrix" values="0 0 0 0 0 0 0 0 0 0 0 0 0 0 0 0 0 0 127 0" result="hardAlpha"/>
<feOffset dy="4"/>
<feGaussianBlur stdDeviation="2"/>
<feComposite in2="hardAlpha" operator="out"/>
<feColorMatrix type="matrix" values="0 0 0 0 0 0 0 0 0 0 0 0 0 0 0 0 0 0 0.5 0"/>
<feBlend mode="normal" in2="BackgroundImageFix" result="effect1_dropShadow_55_2"/>
<feBlend mode="normal" in="SourceGraphic" in2="effect1_dropShadow_55_2" result="shape"/>
</filter>
<filter id="filter1_d_55_2" x="309.001" y="21" width="41.999" height="41" filterUnits="userSpaceOnUse" color-interpolation-filters="sRGB">
<feFlood flood-opacity="0" result="BackgroundImageFix"/>
<feColorMatrix in="SourceAlpha" type="matrix" values="0 0 0 0 0 0 0 0 0 0 0 0 0 0 0 0 0 0 127 0" result="hardAlpha"/>
<feOffset dy="4"/>
<feGaussianBlur stdDeviation="2"/>
<feComposite in2="hardAlpha" operator="out"/>
<feColorMatrix type="matrix" values="0 0 0 0 0 0 0 0 0 0 0 0 0 0 0 0 0 0 0.5 0"/>
<feBlend mode="normal" in2="BackgroundImageFix" result="effect1_dropShadow_55_2"/>
<feBlend mode="normal" in="SourceGraphic" in2="effect1_dropShadow_55_2" result="shape"/>
</filter>
</defs>
</svg>
